# This file uses centimeters as units for non-parametric coordinates.

mtllib Arrow.mtl
g default
v -1.907112 -0.324682 1.000000
v -1.907112 -0.324682 0.324682
v -1.907112 0.324682 1.000000
v -1.907112 0.324682 0.324682
v -1.907112 0.324682 -1.000000
v -1.907112 0.324682 -0.324682
v -1.907112 -0.324682 -1.000000
v -1.907112 -0.324682 -0.324682
v 0.000000 -0.324682 -0.324682
v 0.000000 -0.324682 0.324682
v 0.000000 0.324682 -0.324682
v 0.000000 0.324682 0.324682
v -3.041689 0.324682 0.000000
v -1.907112 0.324682 0.000000
v 0.000000 0.324682 0.000000
v 0.000000 -0.324682 0.000000
v -1.907112 -0.324682 0.000000
v -3.041689 -0.324682 0.000000
vt 0.375000 0.000000
vt 0.712574 0.043837
vt 0.375000 0.250000
vt 0.621848 0.263061
vt 0.375000 0.500000
vt 0.609318 0.476908
vt 0.375000 0.750000
vt 0.633992 0.718407
vt 0.375000 1.000000
vt 0.481980 0.765720
vt 0.125000 0.000000
vt 0.125000 0.250000
vt 0.625000 0.000000
vt 0.875000 0.000000
vt 0.875000 0.250000
vt 0.625000 0.250000
vt 0.625029 0.000031
vt 0.874969 0.000029
vt 0.874970 0.249970
vt 0.625031 0.249971
vt 0.250000 0.250000
vt 0.375000 0.375000
vt 0.564092 0.375000
vt 0.750000 0.250000
vt 0.750000 0.250000
vt 0.750000 0.000000
vt 0.749992 0.000007
vt 0.250000 0.000000
vt 0.375000 0.875000
vt 0.641031 0.763112
vn 1.000000 0.000000 0.000000
vn 1.000000 0.000000 0.000000
vn 1.000000 0.000000 0.000000
vn 1.000000 0.000000 0.000000
vn 0.000000 1.000000 0.000000
vn 0.000000 1.000000 0.000000
vn 0.000000 1.000000 0.000000
vn 0.000000 1.000000 0.000000
vn 1.000000 0.000000 0.000000
vn 1.000000 0.000000 0.000000
vn 1.000000 0.000000 0.000000
vn 1.000000 0.000000 0.000000
vn 0.000000 -1.000000 0.000000
vn 0.000000 -1.000000 0.000000
vn 0.000000 -1.000000 0.000000
vn 0.000000 -1.000000 0.000000
vn 1.000000 0.000000 0.000000
vn 1.000000 0.000000 0.000000
vn 1.000000 0.000000 0.000000
vn 1.000000 0.000000 0.000000
vn -0.661214 0.000000 -0.750198
vn -0.661214 0.000000 -0.750198
vn -1.000000 0.000000 0.000000
vn -1.000000 0.000000 0.000000
vn 0.000000 -1.000000 0.000000
vn 0.000000 -1.000000 0.000000
vn 0.000000 -1.000000 0.000000
vn 0.000000 -1.000000 0.000000
vn 0.000000 0.000000 -1.000000
vn 0.000000 0.000000 -1.000000
vn 0.000000 0.000000 -1.000000
vn 0.000000 0.000000 -1.000000
vn 0.000000 1.000000 0.000000
vn 0.000000 1.000000 0.000000
vn 0.000000 1.000000 0.000000
vn 0.000000 1.000000 0.000000
vn 0.000000 0.000000 1.000000
vn 0.000000 0.000000 1.000000
vn 0.000000 0.000000 1.000000
vn 0.000000 0.000000 1.000000
vn 0.000000 1.000000 0.000000
vn 0.000000 1.000000 0.000000
vn 0.000000 1.000000 0.000000
vn 0.000000 1.000000 0.000000
vn -0.661214 0.000000 0.750198
vn -0.661214 0.000000 0.750198
vn 0.000000 -1.000000 0.000000
vn 0.000000 -1.000000 0.000000
vn 1.000000 0.000000 0.000000
vn 1.000000 0.000000 0.000000
vn 0.000000 -1.000000 0.000000
vn 0.000000 -1.000000 0.000000
s off
g pCube1
usemtl initialShadingGroup
f 1/1/1 2/2/2 4/4/3 3/3/4
s 1
f 13/22/5 14/23/6 6/6/7 5/5/8
s off
f 5/5/9 6/6/10 8/8/11 7/7/12
s 2
f 7/7/13 8/8/14 17/30/15 18/29/16
s 3
f 11/15/17 15/25/18 16/26/19 9/14/20
s 4
f 5/12/21 7/11/22 18/28/23 13/21/24
s 5
f 16/26/25 17/27/26 8/18/27 9/14/28
s off
f 11/15/29 9/14/30 8/18/31 6/19/32
s 6
f 6/19/33 14/24/34 15/25/35 11/15/36
s off
f 12/16/37 4/20/38 2/17/39 10/13/40
s 1
f 3/3/41 4/4/42 14/23/6 13/22/5
s 6
f 15/25/35 14/24/34 4/20/43 12/16/44
s 4
f 1/1/45 3/3/46 13/21/24 18/28/23
s 2
f 18/29/16 17/30/15 2/10/47 1/9/48
s 3
f 12/16/49 10/13/50 16/26/19 15/25/18
s 5
f 2/17/51 17/27/26 16/26/25 10/13/52
